<svg xmlns="http://www.w3.org/2000/svg" width="42.875" height="42.875" viewBox="0 0 42.875 42.875">
  <path id="Icon_awesome-user-circle" data-name="Icon awesome-user-circle" d="M21.438.563A21.438,21.438,0,1,0,42.875,22,21.434,21.434,0,0,0,21.438.563Zm0,8.3a7.607,7.607,0,1,1-7.607,7.607A7.607,7.607,0,0,1,21.438,8.861Zm0,29.736A16.565,16.565,0,0,1,8.774,32.7a9.638,9.638,0,0,1,8.514-5.169,2.115,2.115,0,0,1,.614.1,11.445,11.445,0,0,0,3.535.6,11.4,11.4,0,0,0,3.535-.6,2.115,2.115,0,0,1,.614-.1A9.638,9.638,0,0,1,34.1,32.7,16.565,16.565,0,0,1,21.438,38.6Z" transform="translate(0 -0.563)" fill="#499dfe"/>
</svg>
