<svg xmlns="http://www.w3.org/2000/svg" width="13.951" height="13.951" viewBox="0 0 13.951 13.951"><path d="M17.108,14.676a10.914,10.914,0,0,0-2.28-1.526c-.683-.328-.934-.321-1.417.027-.4.291-.663.562-1.126.46a6.719,6.719,0,0,1-2.263-1.674A6.671,6.671,0,0,1,8.348,9.7c-.1-.467.173-.724.46-1.126.348-.484.359-.734.027-1.417a10.7,10.7,0,0,0-1.526-2.28c-.5-.5-.609-.389-.883-.291a5.024,5.024,0,0,0-.808.43A2.439,2.439,0,0,0,4.647,6.04c-.193.416-.416,1.191.72,3.213a17.931,17.931,0,0,0,3.153,4.2h0l0,0,0,0h0a18,18,0,0,0,4.2,3.153c2.023,1.137,2.8.913,3.213.72a2.4,2.4,0,0,0,1.025-.971,5.024,5.024,0,0,0,.43-.808C17.5,15.285,17.609,15.173,17.108,14.676Z" transform="translate(-4.01 -4.025)" fill="none" stroke="#000" stroke-linecap="round" stroke-linejoin="round" stroke-width="1"/></svg>