<svg xmlns="http://www.w3.org/2000/svg" width="35" height="35" viewBox="0 0 35 35">
  <g id="Group_345" data-name="Group 345" transform="translate(5979 -4210)">
    <rect id="Rectangle_213" data-name="Rectangle 213" width="35" height="35" transform="translate(-5979 4210)" fill="none"/>
    <g id="Group_270" data-name="Group 270" transform="translate(-5974 4212)">
      <path id="Path_3875" data-name="Path 3875" d="M1496.584,110.96V91.3c0-.891.209-1.1,1.1-1.1,1.767,0,3.535-.009,5.3.011a1.047,1.047,0,0,1,.644.253,23.253,23.253,0,0,0,9.653,5.464.387.387,0,0,1,.345.439c-.009,6.707-.007,7.608-.007,14.315,0,.084-.008.168-.014.278h-4.923v-.522c0-2.318,0,1.171,0-1.147,0-.784-.225-1.009-1.007-1.01q-2.586,0-5.172,0c-.756,0-.986.232-.987.987,0,2.332,0-1.142,0,1.191v.5Zm8.562-11.708h-2.386c-.492,0-.984-.013-1.475.009a.706.706,0,0,0-.725.71.718.718,0,0,0,.681.753,2.982,2.982,0,0,0,.389.017q3.471,0,6.942,0a2.311,2.311,0,0,0,.517-.041.668.668,0,0,0,.551-.683c.018-.466-.3-.757-.85-.761-1.215-.008-2.43,0-3.645,0m-.062-2.639c1.23,0,2.46,0,3.69,0,.56,0,.872-.273.87-.739s-.322-.739-.878-.739q-3.668,0-7.337,0c-.554,0-.872.285-.87.748s.316.73.879.731c1.215,0,2.431,0,3.647,0m.019,8.241c1.215,0,2.43,0,3.646,0,.582,0,.906-.292.893-.771-.012-.463-.317-.709-.9-.71q-2.192,0-4.383,0c-1.013,0-2.025-.007-3.038,0a.709.709,0,0,0-.762.8c.034.43.35.679.9.682,1.215.005,2.43,0,3.645,0" transform="translate(-1496.584 -79.726)" fill="#fff"/>
      <path id="Path_3876" data-name="Path 3876" d="M1549.246,2.97c-.494-.553-.971-1.1-1.458-1.628a.767.767,0,0,1-.188-.981.774.774,0,0,1,.949-.321c3.384.775,6.77,1.545,10.15,2.335a1.421,1.421,0,0,1,.683.412q3.43,3.783,6.834,7.59c.486.542.513.722.2,1.358q-1.3,2.627-2.594,5.253a.792.792,0,0,1-.838.553.735.735,0,0,1-.529-1.126c.58-1.2,1.176-2.388,1.764-3.582.19-.385.377-.771.586-1.2-.423-.1-.8-.206-1.178-.258-.1-.014-.27.118-.335.226-.614,1.016-1.211,2.041-1.813,3.064-.392.666-.52.721-1.264.576a21.743,21.743,0,0,1-12.894-7.612.822.822,0,0,1-.1-1.207c.672-1.147,1.347-2.293,2.03-3.456" transform="translate(-1541.146 0)" fill="#fff"/>
    </g>
  </g>
</svg>
