<svg xmlns="http://www.w3.org/2000/svg" width="35" height="35" viewBox="0 0 35 35">
  <g id="Group_343" data-name="Group 343" transform="translate(6117 -4210)">
    <rect id="Rectangle_210" data-name="Rectangle 210" width="35" height="35" transform="translate(-6117 4210)" fill="none"/>
    <g id="Group_272" data-name="Group 272" transform="translate(4.544 1.643)">
      <path id="Path_3868" data-name="Path 3868" d="M557.613,141.534c-.1.606-.184,1.216-.308,1.817a13.566,13.566,0,0,1-2.514,5.478q-.27.357-.56.7a.862.862,0,0,1-1.348.074c-.038-.035-.074-.072-.11-.109q-3.737-3.736-7.469-7.477a1.421,1.421,0,0,1-.373-.616.818.818,0,0,1,.729-.99,3.083,3.083,0,0,1,.37-.015c3.482,0,6.963.006,10.445-.008a1.087,1.087,0,0,1,1.138.65Z" transform="translate(-6645.469 4086.717)" fill="#fff"/>
      <path id="Path_3869" data-name="Path 3869" d="M403.564,27.667c0,2.04.005,4.081-.005,6.121a1.222,1.222,0,0,0,.389.931q4.357,4.344,8.7,8.7c.226.225.448.467.379.8a1.2,1.2,0,0,1-.319.634,13.489,13.489,0,0,1-6.615,3.2A13.913,13.913,0,0,1,390.123,38.1a13.3,13.3,0,0,1,.746-9.55,13.729,13.729,0,0,1,9.873-7.892,16.3,16.3,0,0,1,1.864-.258.863.863,0,0,1,.955.929c.01.67,0,1.34,0,2.01q0,2.164,0,4.328Z" transform="translate(-6509.112 4192.05)" fill="#fff"/>
      <path id="Path_3870" data-name="Path 3870" d="M517.775,18.46q0-2.967,0-5.935c0-.751.353-1.087,1.092-1.015A13.777,13.777,0,0,1,529.89,18.5a13.3,13.3,0,0,1,1.8,5.882.876.876,0,0,1-.964,1.038q-5.981,0-11.962,0a.883.883,0,0,1-.987-.995q0-2.983,0-5.966" transform="translate(-6621.652 4199.856)" fill="#fff"/>
    </g>
  </g>
</svg>
