<svg xmlns="http://www.w3.org/2000/svg" width="46" height="46" viewBox="0 0 46 46"><g transform="translate(-1828 -364)"><circle cx="23" cy="23" r="23" transform="translate(1828 364)" fill="#fff"/><g transform="translate(1.484 2.741)"><g transform="translate(1840.887 375.606)"><path d="M29.32,4.653h-6.05v1.12h1.783V7.544H23.269v.564h1.783V9.882H23.269v.58h1.783V12.14H23.269v.672h1.783v1.681H23.269v.672h1.783v1.691H23.269v1.233h6.05c.1-.029.175-.141.239-.337a1.65,1.65,0,0,0,.1-.479V4.858c0-.1-.033-.154-.1-.175A.828.828,0,0,0,29.32,4.653Zm-.785,12.2h-2.9V15.165h2.9v1.689Zm0-2.361h-2.9V12.811h2.9Zm0-2.354h-2.9v-1.67h2.9v1.67Zm0-2.258h-2.9V8.11h2.9V9.882Zm0-2.347h-2.9V5.774h2.9V7.534Z" transform="translate(-11.596 -2.483)"/><path d="M0,2.219v14l10.656,1.843V.329L0,2.225Z" transform="translate(0 -0.329)" fill="none" stroke="#000" stroke-linecap="round" stroke-linejoin="round" stroke-width="1"/><path d="M6.689,13.593q-.061-.165-.57-1.4c-.338-.825-.542-1.3-.6-1.442H5.5L4.355,13.47l-1.528-.1L4.64,9.981,2.98,6.594l1.558-.082,1.029,2.65h.02L6.75,6.392l1.61-.1L6.443,9.955l1.975,3.739-1.73-.1Z" transform="translate(-0.373 -1.114)"/></g></g></g></svg>