<svg id="Group_452" data-name="Group 452" xmlns="http://www.w3.org/2000/svg" width="20.835" height="21.579" viewBox="0 0 20.835 21.579">
  <rect id="Rectangle_213" data-name="Rectangle 213" width="20.835" height="21.579" transform="translate(0 0)" fill="none"/>
  <g id="Group_270" data-name="Group 270" transform="translate(2.813 1.308)">
    <path id="Path_3875" data-name="Path 3875" d="M1496.584,102.887V90.874c0-.544.128-.672.673-.673,1.08,0,2.16-.006,3.24.007a.64.64,0,0,1,.393.155,14.21,14.21,0,0,0,5.9,3.339.237.237,0,0,1,.211.268c-.005,4.1,0,4.649,0,8.748,0,.051-.005.1-.009.17h-3.009v-.319c0-1.416,0,.715,0-.7,0-.479-.137-.617-.615-.617q-1.58,0-3.16,0c-.462,0-.6.142-.6.6,0,1.425,0-.7,0,.728v.3Zm5.233-7.155h-1.458c-.3,0-.6-.008-.9.006a.432.432,0,0,0-.443.434.439.439,0,0,0,.416.46,1.824,1.824,0,0,0,.238.01q2.121,0,4.242,0a1.412,1.412,0,0,0,.316-.025.408.408,0,0,0,.337-.418c.011-.285-.181-.463-.52-.465-.743,0-1.485,0-2.227,0m-.038-1.613c.752,0,1.5,0,2.255,0,.342,0,.533-.167.531-.452s-.2-.451-.537-.452q-2.242,0-4.484,0c-.338,0-.533.174-.532.457s.193.446.537.447c.743,0,1.486,0,2.229,0m.011,5.036c.743,0,1.485,0,2.228,0,.355,0,.554-.179.546-.471s-.193-.433-.548-.434q-1.339,0-2.679,0c-.619,0-1.238,0-1.856,0a.434.434,0,0,0-.466.486c.021.263.214.415.547.417.743,0,1.485,0,2.228,0" transform="translate(-1496.584 -83.799)"/>
    <path id="Path_3876" data-name="Path 3876" d="M1548.373,1.815c-.3-.338-.593-.669-.891-.995a.469.469,0,0,1-.115-.6.473.473,0,0,1,.58-.2c2.068.473,4.137.944,6.2,1.427a.868.868,0,0,1,.417.252q2.1,2.312,4.177,4.638c.3.331.313.441.122.83q-.792,1.605-1.585,3.21a.484.484,0,0,1-.512.338.449.449,0,0,1-.323-.688c.354-.732.718-1.459,1.078-2.189.116-.235.231-.471.358-.731-.258-.06-.487-.126-.72-.158-.062-.009-.165.072-.2.138-.375.621-.74,1.248-1.108,1.873-.24.407-.318.44-.772.352a13.288,13.288,0,0,1-7.88-4.652.5.5,0,0,1-.064-.737c.411-.7.823-1.4,1.241-2.112" transform="translate(-1543.423 0)"/>
  </g>
</svg>
