<svg id="Group_359" data-name="Group 359" xmlns="http://www.w3.org/2000/svg" width="20.835" height="21.579" viewBox="0 0 20.835 21.579">
  <rect id="Rectangle_212" data-name="Rectangle 212" width="20.835" height="21.579" fill="none"/>
  <g id="Group_271" data-name="Group 271" transform="translate(2.202 1.326)">
    <path id="Path_3873" data-name="Path 3873" d="M1172.981,19.077a4.017,4.017,0,0,0-.435,0,.249.249,0,0,1-.248-.127,2.361,2.361,0,0,1-.146-2.553c.128-.253.291-.418.6-.349a.679.679,0,0,0,.151,0c.277,0,.451-.143.457-.37s-.174-.386-.459-.386c-.617,0-1.235,0-1.852,0a.3.3,0,0,1-.277-.146,2.394,2.394,0,0,1-.052-2.67.386.386,0,0,1,.412-.216,1.646,1.646,0,0,0,.359,0,.373.373,0,0,0,.291-.584.415.415,0,0,0-.377-.17q-1.437,0-2.874,0h-.235a4.4,4.4,0,0,0,1.415-3.025,4.5,4.5,0,0,0-1.172-3.534,2.9,2.9,0,0,0-2.674-.962,6.817,6.817,0,0,0-.679.171c-.056-.225-.11-.441-.164-.655.012-.007.017-.012.023-.013.093-.013.188-.024.281-.038a1.788,1.788,0,0,0,1.626-1.341A6.093,6.093,0,0,0,1167.072,1a.456.456,0,0,0-.4-.526h-.719c-.054.013-.107.03-.161.039a1.827,1.827,0,0,0-1.576,1.234c-.061.177-.1.362-.149.56-.054-.031-.106-.06-.158-.091a2.616,2.616,0,0,0-1.29-.378c-.274-.007-.447.139-.448.372s.161.346.421.389a3.029,3.029,0,0,1,.847.23,1.791,1.791,0,0,1,.969,1.336c-.047-.012-.07-.016-.092-.024a2.974,2.974,0,0,0-3.353.949,4.38,4.38,0,0,0-1.041,2.564,4.551,4.551,0,0,0,1.306,3.761c.024.023.044.05.089.1h-.24c-1.046,0-2.092-.005-3.138.007a.6.6,0,0,0-.383.152,3.107,3.107,0,0,0,0,4.218.633.633,0,0,0,.364.153,6.514,6.514,0,0,0,.7.007c-.032.072-.058.129-.082.185a3.1,3.1,0,0,0,.445,3.35.641.641,0,0,0,.554.251q10.008-.012,13.291,0c.051,0,.1,0,.152,0a.377.377,0,1,0,.006-.753M1165.968,5.8a.382.382,0,0,1,.539-.22,2.5,2.5,0,0,1,1.636,1.894.73.73,0,0,1,.012.1.373.373,0,0,1-.728.132c-.044-.124-.069-.256-.118-.377a1.708,1.708,0,0,0-1.053-1.036.382.382,0,0,1-.288-.491m.33-4.56c.2.843-.488,1.55-1.469,1.494a1.276,1.276,0,0,1,1.469-1.494m-3.593,16.245s-.114.6-.633.282a3.255,3.255,0,0,1-.891-.889l-.8.8s-.607.543-.717-.291l-.012-2.555v-.672c-.152,0-.256,0-.292,0a.372.372,0,0,1-.37-.375.377.377,0,0,1,.37-.377c.05,0,.1,0,.151,0h8.033a1.33,1.33,0,0,1,.189.005.376.376,0,0,1,.006.745,1.325,1.325,0,0,1-.189.006h-4.849Zm6.352.457c-.371.01-.743,0-1.115,0h-2.749c-1.226,0-.209,0-1.433,0a.885.885,0,0,1-.467-.1.449.449,0,0,1-.159-.37c.018-.152.208-.244.433-.271a1.893,1.893,0,0,1,.217-.005h5.108c.054,0,.109,0,.164,0,.306.018.53.183.523.385s-.224.358-.521.365" transform="translate(-1156.729 -0.471)"/>
    <path id="Path_3874" data-name="Path 3874" d="M1201.394,184.452v-.6h2.262v2.681s-.085.47-.469.223a2.5,2.5,0,0,1-.661-.7l-.591.634s-.45.428-.531-.23Z" transform="translate(-1198.056 -170.154)"/>
  </g>
</svg>
