<svg id="Group_358" data-name="Group 358" xmlns="http://www.w3.org/2000/svg" width="20.835" height="21.579" viewBox="0 0 20.835 21.579">
  <rect id="Rectangle_205" data-name="Rectangle 205" width="20.835" height="21.579" transform="translate(0 0)" fill="none"/>
  <g id="Group_273" data-name="Group 273" transform="translate(0.98 3.151)">
    <path id="Path_3871" data-name="Path 3871" d="M17.409,20.876c-.078.037-.144.066-.208.1q-3.547,1.773-7.093,3.55a.871.871,0,0,1-.857,0q-4.4-2.212-8.806-4.406a.66.66,0,0,1,0-1.248q4.424-2.206,8.844-4.422a.787.787,0,0,1,.765-.007q4.427,2.22,8.857,4.431a.644.644,0,0,1,.274,1.051,3.647,3.647,0,0,1-.347.235.309.309,0,0,0-.12.195q-.01,2.177,0,4.355a.369.369,0,0,0,.145.229,1.288,1.288,0,1,1-1.569-.02.312.312,0,0,0,.121-.2c.007-1.25.005-2.5,0-3.75a.78.78,0,0,0-.012-.091" transform="translate(0 -14.346)"/>
    <path id="Path_3872" data-name="Path 3872" d="M69.3,147.94v.227c0,1.2-.005,2.406,0,3.609a.849.849,0,0,1-.319.7,8.213,8.213,0,0,1-4,1.871,8.436,8.436,0,0,1-6.644-1.6c-.022-.016-.042-.034-.065-.048a1.243,1.243,0,0,1-.6-1.219c.041-1.1.012-2.2.012-3.306v-.237c.083.037.143.061.2.09q2.35,1.174,4.7,2.35a1.913,1.913,0,0,0,1.8.007q2.343-1.168,4.684-2.339c.065-.033.131-.063.231-.111" transform="translate(-53.815 -139.009)"/>
  </g>
</svg>
