<svg xmlns="http://www.w3.org/2000/svg" width="28" height="28" viewBox="0 0 28 28">
  <g id="Group_356" data-name="Group 356" transform="translate(-332.709 -349.709)">
    <rect id="Rectangle_211" data-name="Rectangle 211" width="28" height="28" transform="translate(332.709 349.709)" fill="none"/>
    <path id="Path_3867" data-name="Path 3867" d="M794.943.469h.392c.266.2.552.37.8.589a11.358,11.358,0,0,0,4.844,2.607,15.2,15.2,0,0,0,3.662.439.886.886,0,0,1,1,.95c0,2.156.03,4.313-.02,6.467a18.3,18.3,0,0,1-.726,4.632,12.808,12.808,0,0,1-3.563,5.954,16.327,16.327,0,0,1-5.847,3.385,1.063,1.063,0,0,1-.739-.018,18.455,18.455,0,0,1-3.954-1.916,12.636,12.636,0,0,1-5.11-6.473,20.409,20.409,0,0,1-1.072-6.567c-.032-1.788.017-3.577.03-5.366.005-.717.327-1.024,1.052-1.055.709-.031,1.421-.062,2.124-.15A11.359,11.359,0,0,0,794.255.959a6.424,6.424,0,0,1,.688-.49m-4.6,12.043c.912,1.011,1.8,2,2.7,2.986a.929.929,0,0,0,1.5.055q2.616-2.46,5.232-4.919a2.242,2.242,0,0,1,.226-.165L798.74,9.121l-4.862,4.621-2.191-2.429-1.349,1.2" transform="translate(-448.529 351.016)"/>
  </g>
</svg>
