<svg xmlns="http://www.w3.org/2000/svg" width="35" height="35" viewBox="0 0 35 35">
  <g id="Group_342" data-name="Group 342" transform="translate(6163 -4210)">
    <rect id="Rectangle_205" data-name="Rectangle 205" width="35" height="35" transform="translate(-6163 4210)" fill="none"/>
    <g id="Group_273" data-name="Group 273" transform="translate(2 1.816)">
      <path id="Path_3871" data-name="Path 3871" d="M28.488,25.032c-.128.06-.235.108-.341.16q-5.8,2.9-11.606,5.808a1.426,1.426,0,0,1-1.4,0Q7.941,27.382.729,23.792a1.08,1.08,0,0,1,0-2.042Q7.967,18.14,15.2,14.514a1.287,1.287,0,0,1,1.252-.011q7.243,3.633,14.494,7.251a1.053,1.053,0,0,1,.448,1.72,5.969,5.969,0,0,1-.567.384.5.5,0,0,0-.2.319q-.017,3.563,0,7.126a.6.6,0,0,0,.238.375,2.108,2.108,0,1,1-2.567-.033.511.511,0,0,0,.2-.329c.012-2.045.009-4.091.008-6.136a1.277,1.277,0,0,0-.02-.149" transform="translate(-6163 4198.838)" fill="#fff"/>
      <path id="Path_3872" data-name="Path 3872" d="M76.7,147.94v.372c0,1.969-.008,3.937.006,5.906a1.39,1.39,0,0,1-.522,1.15,13.439,13.439,0,0,1-6.55,3.061,13.8,13.8,0,0,1-10.871-2.613c-.035-.026-.069-.055-.106-.078a2.034,2.034,0,0,1-.986-1.994c.067-1.8.02-3.607.02-5.41v-.387c.135.06.234.1.329.148q3.846,1.921,7.691,3.845a3.13,3.13,0,0,0,2.946.012q3.834-1.911,7.665-3.828c.107-.053.215-.1.378-.182" transform="translate(-6214.362 4079.858)" fill="#fff"/>
    </g>
  </g>
</svg>
