<svg xmlns="http://www.w3.org/2000/svg" width="46" height="46" viewBox="0 0 46 46"><g transform="translate(-1223 -364)"><circle cx="23" cy="23" r="23" transform="translate(1223 364)" fill="#fff"/><path d="M15.96.135a5.147,5.147,0,0,0-1.436.244,5.581,5.581,0,0,0-2.032,1.274,1.355,1.355,0,1,0,1.87,1.87,2.635,2.635,0,0,1,1.03-.6,2.758,2.758,0,0,1,2.872.6,2.8,2.8,0,0,1,0,3.9L14.2,11.488a3.6,3.6,0,0,1-2.872,1.274,2.008,2.008,0,0,1-1.111-.352A1.371,1.371,0,1,0,8.86,14.794a5.113,5.113,0,0,0,2.276.677,6.513,6.513,0,0,0,4.9-2.114l4.064-4.064a5.364,5.364,0,0,0,0-7.614A5.267,5.267,0,0,0,17.477.243,5.715,5.715,0,0,0,15.96.162ZM10.54,6.394A6.464,6.464,0,0,0,5.717,8.427L1.653,12.491a5.382,5.382,0,0,0,5.582,8.888,5.581,5.581,0,0,0,2.032-1.274,1.355,1.355,0,1,0-1.87-1.87,2.635,2.635,0,0,1-1.03.6,2.758,2.758,0,0,1-2.872-.6,2.8,2.8,0,0,1,0-3.9L7.56,10.269a3.5,3.5,0,0,1,2.791-1.192,3.951,3.951,0,0,1,1.274.244,1.355,1.355,0,1,0,1.192-2.384,5.292,5.292,0,0,0-2.276-.6Z" transform="translate(1234.932 375.865)"/></g></svg>