<svg id="Group_450" data-name="Group 450" xmlns="http://www.w3.org/2000/svg" xmlns:xlink="http://www.w3.org/1999/xlink" width="45.009" height="45" viewBox="0 0 45.009 45">
  <defs>
    <clipPath id="clip-path">
      <rect id="Rectangle_456" data-name="Rectangle 456" width="45.009" height="45" fill="none"/>
    </clipPath>
  </defs>
  <g id="Group_449" data-name="Group 449" clip-path="url(#clip-path)">
    <path id="Path_3956" data-name="Path 3956" d="M45.008,25.488a6.93,6.93,0,0,1-.514,1,2.248,2.248,0,0,1-1.906.913c-1.011.006-2.022.01-3.032,0-.264,0-.368.087-.463.335-.363.939-.746,1.872-1.161,2.79a.433.433,0,0,0,.111.592c.7.683,1.4,1.38,2.085,2.078a2.334,2.334,0,0,1,.024,3.477c-1.161,1.18-2.328,2.354-3.522,3.5a1.036,1.036,0,0,1-.779.222.7.7,0,0,1-.442-.51,1.056,1.056,0,0,1,.288-.72c1.079-1.116,2.186-2.2,3.284-3.3.705-.706.708-1.122.014-1.817q-1.227-1.228-2.454-2.455a.749.749,0,0,1-.156-1.127,16.882,16.882,0,0,0,1.576-3.8c.148-.528.324-.658.879-.66,1.2,0,2.4,0,3.6,0,.8,0,1.156-.353,1.158-1.146q0-2.351,0-4.7c0-.8-.351-1.148-1.152-1.15-1.187,0-2.373,0-3.56,0-.614,0-.732-.138-.95-.694q-.742-1.894-1.561-3.757c-.232-.528-.246-.724.159-1.132.847-.852,1.7-1.7,2.546-2.549a.99.99,0,0,0-.007-1.629q-1.659-1.666-3.325-3.324a.982.982,0,0,0-1.6,0c-.853.846-1.7,1.7-2.55,2.546a.768.768,0,0,1-1.165.152A16.466,16.466,0,0,0,26.68,7.049c-.537-.151-.67-.321-.672-.868,0-1.2,0-2.4,0-3.6,0-.828-.348-1.17-1.177-1.171q-2.329,0-4.658,0c-.824,0-1.165.345-1.167,1.181,0,1.186,0,2.373,0,3.559,0,.58-.127.758-.681.91a16.7,16.7,0,0,0-3.8,1.577.738.738,0,0,1-1.093-.154c-.852-.847-1.7-1.7-2.549-2.546a.991.991,0,0,0-1.63-.012Q7.584,7.58,5.925,9.245a.988.988,0,0,0,.007,1.628c.826.831,1.658,1.656,2.485,2.486.469.471.453.65.191,1.238Q7.8,16.415,7.081,18.273c-.229.59-.338.725-.971.726-1.172,0-2.344,0-3.516,0-.841,0-1.185.338-1.186,1.161q0,2.351,0,4.7A.987.987,0,0,0,2.531,26c1.2.005,2.4,0,3.6,0,.605,0,.719.14.94.707q.731,1.875,1.544,3.717c.25.566.265.748-.188,1.2-.827.83-1.659,1.656-2.485,2.486a1,1,0,0,0,0,1.659C7.06,36.892,8.187,38,9.291,39.136a1.069,1.069,0,0,1,.323.673.719.719,0,0,1-.388.557,1,1,0,0,1-.79-.146c-.5-.407-.926-.894-1.382-1.35-.725-.725-1.455-1.445-2.175-2.175a2.338,2.338,0,0,1,.009-3.507c.7-.708,1.4-1.416,2.117-2.109a.384.384,0,0,0,.087-.524c-.414-.934-.811-1.877-1.179-2.83a.418.418,0,0,0-.471-.324c-.981.012-1.963.009-2.944,0A2.36,2.36,0,0,1,0,24.891Q0,22.5,0,20.1A2.359,2.359,0,0,1,2.5,17.6c.981,0,1.963-.009,2.944,0a.417.417,0,0,0,.466-.331c.37-.953.766-1.9,1.181-2.829A.384.384,0,0,0,7,13.918c-.714-.694-1.416-1.4-2.115-2.11a2.335,2.335,0,0,1,0-3.506Q6.6,6.568,8.334,4.854a2.328,2.328,0,0,1,3.444,0q1.067,1.045,2.11,2.116a.433.433,0,0,0,.593.108q1.377-.621,2.791-1.158a.414.414,0,0,0,.33-.466C17.588,4.6,17.6,3.75,17.6,2.9c0-1.692.379-2.265,1.919-2.9h5.978c1.54.638,1.919,1.211,1.919,2.9,0,.849.01,1.7-.006,2.548,0,.263.084.366.334.462.94.361,1.873.744,2.79,1.161a.429.429,0,0,0,.591-.107c.672-.694,1.362-1.372,2.047-2.053a2.343,2.343,0,0,1,3.539-.029q1.719,1.7,3.417,3.417a2.34,2.34,0,0,1,0,3.508c-.7.709-1.4,1.415-2.116,2.109a.385.385,0,0,0-.1.522c.415.933.811,1.876,1.181,2.828a.417.417,0,0,0,.465.332c1.01-.014,2.021-.01,3.031,0a2.262,2.262,0,0,1,1.933.947,6.654,6.654,0,0,1,.484.969Z" transform="translate(0)"/>
    <path id="Path_3957" data-name="Path 3957" d="M99.541,258.836c.173-.9.328-1.669.459-2.441a.717.717,0,0,0-.114-.4c-.411-.775-.837-1.543-1.248-2.318-.356-.672-.07-1.178.688-1.185q2.394-.021,4.789,0c.732.007,1.02.514.68,1.161-.409.777-.842,1.54-1.243,2.321a1,1,0,0,0-.093.57c.112.722.258,1.438.418,2.3.1-.237.163-.354.209-.477q.969-2.564,1.935-5.129c.244-.648.439-.767,1.124-.685a7.531,7.531,0,0,1,6.517,7.22c.031,2.4.01,4.8.008,7.2,0,.6-.249.856-.852.857q-11.116,0-22.232,0c-.578,0-.832-.255-.832-.831,0-2.431-.027-4.862.009-7.292a7.532,7.532,0,0,1,6.533-7.159c.68-.076.861.04,1.111.7q.959,2.544,1.922,5.087c.048.128.108.252.213.494m1.325,7.579c-.039-.131-.066-.241-.105-.346q-2.221-5.863-4.438-11.727c-.121-.321-.276-.328-.559-.255a6.135,6.135,0,0,0-4.6,5.794c-.026,2.093-.007,4.187-.006,6.28a1.867,1.867,0,0,0,.035.253Zm11.382,0c.008-.111.016-.182.016-.253,0-2.093.019-4.187-.008-6.28A6.144,6.144,0,0,0,107.7,254.1c-.363-.1-.5-.021-.633.329q-2.073,5.52-4.177,11.029c-.117.31-.227.622-.351.962Zm-10.59-1.951.105.006c.377-.992.757-1.982,1.125-2.977a.688.688,0,0,0-.011-.339c-.273-1.48-.531-2.963-.836-4.436a1.713,1.713,0,0,1,.211-1.334c.284-.463.523-.954.791-1.45h-2.663c.32.592.638,1.119.89,1.676a1.6,1.6,0,0,1,.142.873c-.251,1.469-.549,2.929-.823,4.394a1.342,1.342,0,0,0-.038.639c.348.99.734,1.967,1.107,2.948" transform="translate(-79.206 -222.836)"/>
    <path id="Path_3958" data-name="Path 3958" d="M89.856,102.344c.01-7.42,5.73-12.857,12.576-12.524A11.967,11.967,0,0,1,113.7,100.558a11.746,11.746,0,0,1-2.225,8.242c-.309.432-.649.541-1.006.344-.42-.233-.48-.685-.133-1.163a10.536,10.536,0,0,0-7.344-16.692,10.536,10.536,0,0,0-11.611,8.934,10.335,10.335,0,0,0,1.84,7.662,1.618,1.618,0,0,1,.287.534.628.628,0,0,1-.4.746.675.675,0,0,1-.883-.267,11.732,11.732,0,0,1-1.734-3.285,11.524,11.524,0,0,1-.632-3.267" transform="translate(-79.306 -79.262)"/>
    <path id="Path_3959" data-name="Path 3959" d="M142.924,150.156a6.485,6.485,0,1,1,6.485-6.487,6.514,6.514,0,0,1-6.485,6.487m-.006-1.406a5.078,5.078,0,1,0-5.074-5.061,5.117,5.117,0,0,0,5.074,5.061" transform="translate(-120.417 -121.08)"/>
  </g>
</svg>
