<svg xmlns="http://www.w3.org/2000/svg" width="46" height="46" viewBox="0 0 46 46"><g transform="translate(-1760 -364)"><circle cx="23" cy="23" r="23" transform="translate(1760 364)" fill="#fff"/><path d="M17.675,6.275a2.508,2.508,0,0,1,.494.814,2.559,2.559,0,0,1,.206.943V20.376a1.013,1.013,0,0,1-.288.729.934.934,0,0,1-.7.3H3.558a.934.934,0,0,1-.7-.3,1.013,1.013,0,0,1-.288-.729V3.232A1.013,1.013,0,0,1,2.859,2.5a.934.934,0,0,1,.7-.3h9.219a2.3,2.3,0,0,1,.905.214,2.385,2.385,0,0,1,.782.514ZM13.107,3.661V7.69h3.869a1.186,1.186,0,0,0-.226-.439L13.529,3.9a1.112,1.112,0,0,0-.422-.236Zm3.951,16.373V9.061h-4.28a.934.934,0,0,1-.7-.3,1.013,1.013,0,0,1-.288-.729V3.575h-7.9V20.033h13.17Zm-5.289-6.354a7.815,7.815,0,0,0,.864.6,9.809,9.809,0,0,1,1.2-.075q1.513,0,1.821.525a.536.536,0,0,1,.021.557.031.031,0,0,1-.01.021l-.021.021v.011q-.062.407-.731.407a4.092,4.092,0,0,1-1.183-.214,7.336,7.336,0,0,1-1.338-.568,17.894,17.894,0,0,0-4.033.889q-1.574,2.807-2.49,2.807a.58.58,0,0,1-.288-.075l-.247-.129q-.01-.011-.062-.054a.457.457,0,0,1-.062-.386,2.348,2.348,0,0,1,.576-.98A4.991,4.991,0,0,1,7.149,16q.144-.1.237.064a.063.063,0,0,1,.021.043Q7.942,15.2,8.508,14a16.76,16.76,0,0,0,1.07-2.807,8.982,8.982,0,0,1-.314-1.709,4.335,4.335,0,0,1,.067-1.366q.113-.429.432-.429h.226a.426.426,0,0,1,.36.161.886.886,0,0,1,.093.729.236.236,0,0,1-.041.086.29.29,0,0,1,.01.086v.321a14.6,14.6,0,0,1-.144,2.057,5.457,5.457,0,0,0,1.5,2.55Zm-5.927,4.4a4.67,4.67,0,0,0,1.41-1.693,5.979,5.979,0,0,0-.9.9A3.578,3.578,0,0,0,5.843,18.083Zm4.1-9.858A3.314,3.314,0,0,0,9.917,9.64q.01-.075.072-.471,0-.032.072-.461a.245.245,0,0,1,.041-.086.031.031,0,0,1-.01-.021.022.022,0,0,0-.005-.016.022.022,0,0,1-.005-.016.632.632,0,0,0-.134-.386.031.031,0,0,1-.01.021v.021ZM8.662,15.308a14.634,14.634,0,0,1,2.922-.868,1.557,1.557,0,0,1-.134-.1,1.864,1.864,0,0,1-.165-.145,5.672,5.672,0,0,1-1.307-1.886,14.65,14.65,0,0,1-.854,2.111q-.309.6-.463.889Zm6.647-.171q-.247-.257-1.44-.257a3.761,3.761,0,0,0,1.276.3.959.959,0,0,0,.185-.011q0-.011-.021-.032Z" transform="translate(1772.688 375.325)"/></g></svg>