<svg xmlns="http://www.w3.org/2000/svg" width="35" height="35" viewBox="0 0 35 35">
  <g id="Group_337" data-name="Group 337" transform="translate(6025 -4210)">
    <rect id="Rectangle_212" data-name="Rectangle 212" width="35" height="35" transform="translate(-6025 4210)" fill="none"/>
    <g id="Group_271" data-name="Group 271" transform="translate(9.395 2)">
      <path id="Path_3873" data-name="Path 3873" d="M1183.324,30.917a6.575,6.575,0,0,0-.712,0,.407.407,0,0,1-.406-.208,3.865,3.865,0,0,1-.24-4.178c.21-.415.477-.685.983-.571a1.111,1.111,0,0,0,.247,0c.454,0,.737-.235.747-.605s-.285-.631-.751-.631c-1.01,0-2.021-.007-3.031,0a.492.492,0,0,1-.454-.238,3.919,3.919,0,0,1-.086-4.369.632.632,0,0,1,.674-.353,2.691,2.691,0,0,0,.587,0,.61.61,0,0,0,.477-.955.68.68,0,0,0-.617-.279q-2.351.006-4.7,0h-.384a7.209,7.209,0,0,0,2.315-4.95,7.355,7.355,0,0,0-1.917-5.783,4.737,4.737,0,0,0-4.376-1.574,11.185,11.185,0,0,0-1.111.28c-.092-.368-.18-.721-.268-1.071.02-.011.028-.02.038-.021.153-.021.307-.039.46-.062a2.925,2.925,0,0,0,2.661-2.195,9.982,9.982,0,0,0,.2-1.832A.746.746,0,0,0,1173,.471h-1.176c-.088.021-.175.049-.263.064a2.989,2.989,0,0,0-2.579,2.019c-.1.29-.159.592-.243.917-.088-.05-.174-.1-.259-.149a4.28,4.28,0,0,0-2.11-.619c-.449-.012-.731.227-.734.609s.263.566.69.636a4.955,4.955,0,0,1,1.385.377,2.93,2.93,0,0,1,1.585,2.186c-.077-.02-.115-.026-.15-.039a4.866,4.866,0,0,0-5.486,1.553,7.166,7.166,0,0,0-1.7,4.2,7.446,7.446,0,0,0,2.137,6.154c.039.038.072.082.146.165h-.393c-1.712,0-3.424-.009-5.135.011a.981.981,0,0,0-.626.249,5.084,5.084,0,0,0,0,6.9,1.036,1.036,0,0,0,.6.251,10.659,10.659,0,0,0,1.141.011c-.053.119-.094.21-.133.3a5.078,5.078,0,0,0,.728,5.481,1.049,1.049,0,0,0,.907.411q16.377-.02,21.749-.006c.083,0,.166,0,.248,0a.616.616,0,1,0,.01-1.233M1171.847,9.184a.626.626,0,0,1,.882-.359,4.093,4.093,0,0,1,2.678,3.1,1.232,1.232,0,0,1,.02.159.61.61,0,0,1-1.191.215c-.072-.2-.113-.418-.193-.616a2.8,2.8,0,0,0-1.723-1.695.625.625,0,0,1-.472-.8m.541-7.462c.33,1.379-.8,2.536-2.4,2.444a2.088,2.088,0,0,1,2.4-2.444M1166.509,28.3s-.187.976-1.036.462a5.322,5.322,0,0,1-1.459-1.455l-1.3,1.317s-.993.889-1.173-.477l-.019-4.182v-1.1c-.248,0-.418,0-.477,0a.608.608,0,0,1-.606-.614.617.617,0,0,1,.606-.616c.082-.006.165,0,.247,0h13.146a2.176,2.176,0,0,1,.309.009.615.615,0,0,1,.01,1.219,2.169,2.169,0,0,1-.309.01h-7.935Zm10.394.747c-.608.017-1.217.006-1.825.006q-2.249,0-4.5,0c-2.005,0-.341.006-2.345-.007a1.447,1.447,0,0,1-.764-.171.734.734,0,0,1-.26-.605c.029-.249.34-.4.709-.444a3.1,3.1,0,0,1,.355-.009c4.009,0,4.35,0,8.359,0,.089,0,.179,0,.268,0,.5.029.867.3.856.63s-.367.586-.852.6" transform="translate(-7187.123 4209.529)" fill="#a2a2a2"/>
      <path id="Path_3874" data-name="Path 3874" d="M1201.394,184.831v-.974h3.7v4.388s-.139.769-.768.364a4.089,4.089,0,0,1-1.082-1.146l-.967,1.037s-.736.7-.87-.376Z" transform="translate(-7226.327 4048.566)" fill="#a2a2a2"/>
    </g>
  </g>
</svg>
