<svg xmlns="http://www.w3.org/2000/svg" width="28" height="29" viewBox="0 0 28 29">
  <g id="Group_358" data-name="Group 358" transform="translate(-1029.434 -350.001)">
    <rect id="Rectangle_205" data-name="Rectangle 205" width="28" height="29" transform="translate(1029.434 350.001)" fill="none"/>
    <g id="Group_273" data-name="Group 273" transform="translate(1030.751 354.235)">
      <path id="Path_3871" data-name="Path 3871" d="M23.4,23.122c-.1.049-.193.088-.28.132q-4.767,2.382-9.532,4.77a1.171,1.171,0,0,1-1.152,0Q6.522,25.053.6,22.1a.887.887,0,0,1,0-1.677q5.946-2.965,11.885-5.943a1.057,1.057,0,0,1,1.028-.009q5.949,2.984,11.9,5.955a.865.865,0,0,1,.368,1.413,4.9,4.9,0,0,1-.466.315.415.415,0,0,0-.161.262q-.014,2.926,0,5.853a.5.5,0,0,0,.2.308,1.731,1.731,0,1,1-2.109-.027.42.42,0,0,0,.163-.27c.01-1.68.007-3.36.006-5.04a1.049,1.049,0,0,0-.017-.122" transform="translate(0 -14.346)" fill="#227994"/>
      <path id="Path_3872" data-name="Path 3872" d="M73.3,147.94v.305c0,1.617-.007,3.234,0,4.85a1.142,1.142,0,0,1-.429.944,11.038,11.038,0,0,1-5.38,2.514,11.337,11.337,0,0,1-8.928-2.146c-.029-.021-.057-.045-.087-.064a1.67,1.67,0,0,1-.81-1.638c.055-1.479.016-2.962.016-4.443v-.318c.111.05.192.082.271.121q3.159,1.578,6.317,3.158a2.571,2.571,0,0,0,2.42.01q3.149-1.57,6.295-3.144c.088-.044.177-.085.311-.15" transform="translate(-52.489 -135.938)" fill="#227994"/>
    </g>
  </g>
</svg>
