<svg xmlns="http://www.w3.org/2000/svg" width="35" height="35" viewBox="0 0 35 35">
  <g id="Group_335" data-name="Group 335" transform="translate(6070 -4210)">
    <rect id="Rectangle_211" data-name="Rectangle 211" width="35" height="35" transform="translate(-6070 4210)" fill="none"/>
    <path id="Path_3867" data-name="Path 3867" d="M797.667.469h.5c.337.247.7.467,1.006.744a14.348,14.348,0,0,0,6.12,3.294,19.2,19.2,0,0,0,4.626.555,1.119,1.119,0,0,1,1.265,1.2c0,2.724.038,5.448-.026,8.17a23.131,23.131,0,0,1-.917,5.852,16.18,16.18,0,0,1-4.5,7.522,20.626,20.626,0,0,1-7.386,4.276,1.343,1.343,0,0,1-.933-.022,23.319,23.319,0,0,1-5-2.42,15.963,15.963,0,0,1-6.456-8.178,25.782,25.782,0,0,1-1.354-8.3c-.04-2.259.021-4.519.038-6.779.007-.905.414-1.293,1.329-1.333.9-.039,1.795-.078,2.683-.19A14.35,14.35,0,0,0,796.8,1.089a8.119,8.119,0,0,1,.869-.62m-5.817,15.214c1.153,1.277,2.277,2.527,3.407,3.772a1.174,1.174,0,0,0,1.9.069q3.3-3.108,6.609-6.214a2.832,2.832,0,0,1,.286-.208l-1.587-1.7-6.142,5.838-2.768-3.068-1.7,1.514" transform="translate(-6850.597 4211.531)" fill="#a2a2a2"/>
  </g>
</svg>
