<svg xmlns="http://www.w3.org/2000/svg" xmlns:xlink="http://www.w3.org/1999/xlink" width="42" height="42" viewBox="0 0 42 42">
  <defs>
    <clipPath id="clip-path">
      <circle id="Ellipse_165" data-name="Ellipse 165" cx="21" cy="21" r="21" transform="translate(0.118 0.118)" fill="#499dfe"/>
    </clipPath>
    <filter id="Path_4501" x="-9.071" y="-6.071" width="60.142" height="60.142" filterUnits="userSpaceOnUse">
      <feOffset dy="3" input="SourceAlpha"/>
      <feGaussianBlur stdDeviation="3" result="blur"/>
      <feFlood flood-opacity="0.161"/>
      <feComposite operator="in" in2="blur"/>
      <feComposite in="SourceGraphic"/>
    </filter>
  </defs>
  <g id="Mask_Group_1" data-name="Mask Group 1" transform="translate(-0.118 -0.118)" clip-path="url(#clip-path)">
    <g transform="matrix(1, 0, 0, 1, 0.12, 0.12)" filter="url(#Path_4501)">
      <path id="Path_4501-2" data-name="Path 4501" d="M21.071,0A21.071,21.071,0,1,1,0,21.071,21.071,21.071,0,0,1,21.071,0Z" transform="translate(-0.07 -0.07)" fill="#51a1ff"/>
    </g>
    <path id="Path_4500" data-name="Path 4500" d="M124.787,139.418s.01-.005,0,0l-20.6,5.685L84.721,139.44c-.038.034.011.017,0,0h0l13.563-4.175,1.922-4.434s-3.5-3.527-3.67-4.751c-.141-.918-1.695,1.271-1.695,1.977s1.836.677,1.836,2.774a1.809,1.809,0,0,1-1.836,2.027,1.99,1.99,0,0,1-1.835-2.027c.071-2.633,1.2-4.045,1.2-7.433s-1.482-3.741-1.482-5.083,1.115-2.024,1.977-1.13c.014-6,1.655-12.528,9.485-12.349,7.831-.179,9.913,6.256,9.913,12.349.988-.635,1.976-.212,1.976,1.13s-1.482,1.695-1.482,5.083,1.13,4.8,1.2,7.433a1.99,1.99,0,0,1-1.835,2.027,1.809,1.809,0,0,1-1.835-2.027c0-2.1,1.835-2.068,1.835-2.774s-1.553-2.894-1.694-1.977c-.216,1.038-3.413,4.751-3.413,4.751l1.856,4.662,14.08,3.925Z" transform="translate(-83.631 -101.697)" fill="#fff" fill-rule="evenodd"/>
    <path id="Path_4499" data-name="Path 4499" d="M183.778,166.814a4.805,4.805,0,0,0-4.358,4.542c0,2.64,2.416,3.683,2.416,6.629,0,1.412-.513,1.9-.636,2.977-.123,3.988,1.771,3.78,1.771,5.555,0,3.407-1.832,3.408-1.832,6.323a7.343,7.343,0,0,0,2.585,4.851c.018-3.365,2.017-5.377,2.142-7.8.092-4.42-2.311-4.85-2.311-8.1,0-4.418,4.583-4.481,4.644-10.681a4.535,4.535,0,0,0-4.42-4.3" transform="translate(-162.636 -161.206)" fill="#51a1ff" fill-rule="evenodd"/>
  </g>
</svg>
