<svg xmlns="http://www.w3.org/2000/svg" width="21.379" height="21.379" viewBox="0 0 21.379 21.379"><g transform="translate(-3.375 -3.375)"><path d="M20.636,15.163H16.807V11.334a.822.822,0,0,0-1.645,0v3.829H11.334a.788.788,0,0,0-.822.822.8.8,0,0,0,.822.822h3.829v3.829a.8.8,0,0,0,.822.822.818.818,0,0,0,.822-.822V16.807h3.829a.822.822,0,0,0,0-1.645Z" transform="translate(-1.92 -1.92)" fill="#fff"/><path d="M14.064,4.814A9.247,9.247,0,1,1,7.522,7.522a9.189,9.189,0,0,1,6.542-2.708m0-1.439A10.689,10.689,0,1,0,24.754,14.064,10.688,10.688,0,0,0,14.064,3.375Z" fill="#fff"/></g></svg>