<svg xmlns="http://www.w3.org/2000/svg" width="13.708" height="15.523" viewBox="0 0 13.708 15.523">
  <path id="Icon_awesome-user-tie" data-name="Icon awesome-user-tie" d="M6.354,7.262A3.631,3.631,0,1,0,2.723,3.631,3.631,3.631,0,0,0,6.354,7.262Zm2.717.925L7.716,13.616,6.808,9.758l.908-1.589H4.992L5.9,9.758l-.908,3.858L3.637,8.186A3.806,3.806,0,0,0,0,11.982v1.18a1.362,1.362,0,0,0,1.362,1.362h9.985a1.362,1.362,0,0,0,1.362-1.362v-1.18a3.806,3.806,0,0,0-3.637-3.8Z" transform="translate(0.5 0.5)" fill="none" stroke="#000" stroke-width="1"/>
</svg>
