<svg xmlns="http://www.w3.org/2000/svg" xmlns:xlink="http://www.w3.org/1999/xlink" width="57" height="57" viewBox="0 0 57 57">
  <defs>
    <filter id="Ellipse_122" x="0" y="0" width="57" height="57" filterUnits="userSpaceOnUse">
      <feOffset dy="3" input="SourceAlpha"/>
      <feGaussianBlur stdDeviation="3" result="blur"/>
      <feFlood flood-opacity="0.161"/>
      <feComposite operator="in" in2="blur"/>
      <feComposite in="SourceGraphic"/>
    </filter>
  </defs>
  <g id="Group_1238" data-name="Group 1238" transform="translate(1 -18)">
    <g transform="matrix(1, 0, 0, 1, -1, 18)" filter="url(#Ellipse_122)">
      <circle id="Ellipse_122-2" data-name="Ellipse 122" cx="19.5" cy="19.5" r="19.5" transform="translate(9 6)" fill="#499dfe"/>
    </g>
    <g id="Group_576" data-name="Group 576" transform="translate(18 34.461)">
      <path id="Path_4274" data-name="Path 4274" d="M1003.856,3.763c-.053.225-.094.455-.162.675a3.406,3.406,0,0,1-.9,1.436q-3.028,2.968-6.054,5.938a4.848,4.848,0,0,1-3.517,1.425q-.924,0-1.848,0a.918.918,0,0,1-1.016-.99c0-.723-.008-1.448.023-2.17A4.476,4.476,0,0,1,991.8,7q3.035-2.986,6.08-5.963a3.526,3.526,0,0,1,4.908-.079,3.273,3.273,0,0,1,1.031,1.953c.009.058.026.115.04.173v.682m-6.762.571a.446.446,0,0,0-.044.033q-2,1.96-4,3.921a2.861,2.861,0,0,0-.777,1.339,7.531,7.531,0,0,0-.093,1.714.569.569,0,0,0,.018.107c.338,0,.667,0,1,0a3.061,3.061,0,0,0,2.294-.932q1.907-1.885,3.827-3.757c.046-.045.089-.092.122-.126l-2.346-2.3m1.323-1.321,2.367,2.322c.288-.3.607-.593.89-.92a1.591,1.591,0,0,0-.129-2.156,1.667,1.667,0,0,0-2.2-.111c-.329.275-.628.583-.929.866" transform="translate(-985.119 0)" fill="#fff"/>
      <path id="Path_4275" data-name="Path 4275" d="M876.005,33.149c0-1.92,0-3.84,0-5.76a2.682,2.682,0,0,1,2.213-2.66,3.021,3.021,0,0,1,.563-.053q2.579-.006,5.159,0a.919.919,0,0,1,.955.656.881.881,0,0,1-.667,1.1,1.647,1.647,0,0,1-.345.03q-2.543,0-5.086,0a.9.9,0,0,0-.945.687,1.321,1.321,0,0,0-.024.3q0,5.706,0,11.412a.909.909,0,0,0,1.012.987h9.806a.913.913,0,0,0,1.009-.992c0-.885,0-1.77,0-2.656a.909.909,0,0,1,1.793-.24,1.322,1.322,0,0,1,.028.267c0,.9.008,1.794,0,2.692a2.688,2.688,0,0,1-2.268,2.671,3.2,3.2,0,0,1-.546.045q-4.921,0-9.842,0a2.714,2.714,0,0,1-2.755-2.144,3.064,3.064,0,0,1-.059-.641q-.007-2.853,0-5.706" transform="translate(-876.004 -23.563)" fill="#fff"/>
    </g>
  </g>
</svg>
