<svg xmlns="http://www.w3.org/2000/svg" xmlns:xlink="http://www.w3.org/1999/xlink" width="57" height="57" viewBox="0 0 57 57">
  <defs>
    <filter id="Ellipse_125" x="0" y="0" width="57" height="57" filterUnits="userSpaceOnUse">
      <feOffset dy="3" input="SourceAlpha"/>
      <feGaussianBlur stdDeviation="3" result="blur"/>
      <feFlood flood-opacity="0.161"/>
      <feComposite operator="in" in2="blur"/>
      <feComposite in="SourceGraphic"/>
    </filter>
    <clipPath id="clip-path">
      <rect id="Rectangle_580" data-name="Rectangle 580" width="20.65" height="19.342" fill="none"/>
    </clipPath>
  </defs>
  <g id="Group_1235" data-name="Group 1235" transform="translate(9 6)">
    <g transform="matrix(1, 0, 0, 1, -9, -6)" filter="url(#Ellipse_125)">
      <circle id="Ellipse_125-2" data-name="Ellipse 125" cx="19.5" cy="19.5" r="19.5" transform="translate(9 6)" fill="#fff"/>
    </g>
    <g id="Group_584" data-name="Group 584" transform="translate(9.176 9.832)">
      <g id="Group_583" data-name="Group 583" clip-path="url(#clip-path)">
        <path id="Path_4283" data-name="Path 4283" d="M0,16.93V2.411a.863.863,0,0,1,.663-.5c2.187-.392,4.372-.8,6.558-1.2L10.993.017a.659.659,0,0,1,.849.669c0,.175,0,.349,0,.524V2.572h8.4c.572,0,.808.232.808.8q0,6.3,0,12.6c0,.573-.235.8-.826.8H11.842c0,.655,0,1.279,0,1.9a.656.656,0,0,1-.827.655Q5.889,18.387.764,17.45A.909.909,0,0,1,0,16.93m1.325-.7,9.188,1.688V1.416L1.325,3.106ZM11.851,12.9h1.832a1.354,1.354,0,0,1,.266.015.641.641,0,0,1-.137,1.272c-.582.008-1.165,0-1.747,0h-.21v1.277h7.867V3.874H11.857V5.153c.637,0,1.26,0,1.883,0a.65.65,0,1,1,0,1.29c-.555,0-1.11,0-1.665,0h-.217V7.735h.23c.569,0,1.138,0,1.706,0a.645.645,0,1,1,0,1.288c-.308.005-.617,0-.925,0H11.856v1.291c.642,0,1.272,0,1.9,0a.648.648,0,1,1,0,1.289c-.562,0-1.124,0-1.686,0h-.221Z" transform="translate(0 0)"/>
        <path id="Path_4284" data-name="Path 4284" d="M66.682,117.506l.284-.355,1.627-2.052a.659.659,0,0,1,.681-.275.627.627,0,0,1,.512.493.668.668,0,0,1-.172.6q-.967,1.215-1.929,2.433c-.037.047-.073.1-.12.158l.918,1.032c.365.41.732.818,1.1,1.229a.643.643,0,0,1,0,.981.677.677,0,0,1-.992-.137q-.848-.946-1.692-1.9c-.045-.05-.092-.1-.153-.165-.056.067-.107.126-.155.186q-.745.938-1.489,1.876a.647.647,0,0,1-.679.274.626.626,0,0,1-.515-.487.668.668,0,0,1,.171-.6q.834-1.048,1.664-2.1c.037-.047.072-.1.115-.154l-1.53-1.716c-.09-.1-.183-.2-.269-.3a.629.629,0,0,1,.051-.905.652.652,0,0,1,.936.06c.5.55.995,1.11,1.491,1.666.044.049.091.1.153.159" transform="translate(-60.656 -109.009)"/>
        <path id="Path_4285" data-name="Path 4285" d="M307.959,103.26c-.219,0-.438,0-.657,0a.644.644,0,1,1,0-1.287q.636-.009,1.273,0a.645.645,0,1,1,0,1.288c-.205,0-.411,0-.616,0" transform="translate(-291.142 -96.817)"/>
        <path id="Path_4286" data-name="Path 4286" d="M307.965,153.094c.212,0,.424-.005.636,0a.643.643,0,1,1,.013,1.285q-.667.016-1.334,0a.643.643,0,1,1,.007-1.285c.226-.007.452,0,.678,0" transform="translate(-291.143 -145.358)"/>
        <path id="Path_4287" data-name="Path 4287" d="M307.942,204.2c.219,0,.438-.005.657,0a.643.643,0,1,1,0,1.286q-.647.012-1.293,0a.644.644,0,1,1,0-1.287c.212,0,.424,0,.636,0" transform="translate(-291.142 -193.879)"/>
        <path id="Path_4288" data-name="Path 4288" d="M307.936,256.562c-.212,0-.424,0-.636,0a.644.644,0,1,1,.008-1.287q.636-.009,1.273,0a.645.645,0,1,1-.008,1.288c-.212,0-.424,0-.636,0" transform="translate(-291.142 -242.374)"/>
      </g>
    </g>
  </g>
</svg>
