<svg xmlns="http://www.w3.org/2000/svg" width="16.127" height="16.123" viewBox="0 0 16.127 16.123"><path d="M11.437,3.375h-.027a8.062,8.062,0,0,0,0,16.123h.027a8.062,8.062,0,1,0,0-16.123Zm6.984,7.519H15.413a15.263,15.263,0,0,0-.38-2.953,11.807,11.807,0,0,0,1.926-.814A6.944,6.944,0,0,1,18.421,10.894Zm-7.527,0H8.5A13.776,13.776,0,0,1,8.84,8.216a11.792,11.792,0,0,0,2.054.275Zm0,1.085v2.4a11.842,11.842,0,0,0-2.054.275A13.774,13.774,0,0,1,8.5,11.979Zm1.085,0h2.376a13.7,13.7,0,0,1-.341,2.67,11.569,11.569,0,0,0-2.035-.271Zm0-1.085v-2.4a11.842,11.842,0,0,0,2.035-.271,13.735,13.735,0,0,1,.341,2.674Zm4.24-4.569a10.767,10.767,0,0,1-1.473.6,8,8,0,0,0-1.027-2.112A7.013,7.013,0,0,1,16.219,6.324Zm-2.5.88a10.908,10.908,0,0,1-1.744.233V4.592A4.7,4.7,0,0,1,13.723,7.2ZM10.894,4.576V7.433A10.72,10.72,0,0,1,9.131,7.2,4.694,4.694,0,0,1,10.894,4.576Zm-1.767.248a8.066,8.066,0,0,0-1.019,2.1,11.009,11.009,0,0,1-1.453-.6A6.909,6.909,0,0,1,9.127,4.825ZM5.914,7.131a11.573,11.573,0,0,0,1.907.806,14.647,14.647,0,0,0-.38,2.953H4.456A6.908,6.908,0,0,1,5.914,7.131ZM4.452,11.979H7.437a15.224,15.224,0,0,0,.38,2.953,12.279,12.279,0,0,0-1.907.806A6.945,6.945,0,0,1,4.452,11.979Zm2.2,4.569a10.847,10.847,0,0,1,1.457-.6,8.094,8.094,0,0,0,1.019,2.1A7.08,7.08,0,0,1,6.65,16.549Zm2.48-.876a10.776,10.776,0,0,1,1.763-.236V18.3A4.687,4.687,0,0,1,9.131,15.673Zm2.849,2.608V15.432a10.908,10.908,0,0,1,1.744.233A4.694,4.694,0,0,1,11.979,18.281Zm1.744-.221a8,8,0,0,0,1.027-2.112,10.59,10.59,0,0,1,1.473.6A7.094,7.094,0,0,1,13.723,18.06Zm3.236-2.318a11.807,11.807,0,0,0-1.926-.814,15.183,15.183,0,0,0,.38-2.949h3.008A6.913,6.913,0,0,1,16.96,15.742Z" transform="translate(-3.375 -3.375)"/></svg>