<svg xmlns="http://www.w3.org/2000/svg" xmlns:xlink="http://www.w3.org/1999/xlink" width="57" height="57" viewBox="0 0 57 57">
  <defs>
    <filter id="Ellipse_122" x="0" y="0" width="57" height="57" filterUnits="userSpaceOnUse">
      <feOffset dy="3" input="SourceAlpha"/>
      <feGaussianBlur stdDeviation="3" result="blur"/>
      <feFlood flood-opacity="0.161"/>
      <feComposite operator="in" in2="blur"/>
      <feComposite in="SourceGraphic"/>
    </filter>
  </defs>
  <g id="Group_1239" data-name="Group 1239" transform="translate(9 6)">
    <g transform="matrix(1, 0, 0, 1, -9, -6)" filter="url(#Ellipse_122)">
      <circle id="Ellipse_122-2" data-name="Ellipse 122" cx="19.5" cy="19.5" r="19.5" transform="translate(9 6)" fill="#fff"/>
    </g>
    <g id="Group_1225" data-name="Group 1225" transform="translate(10.332 10.502)">
      <path id="Path_4266" data-name="Path 4266" d="M2291.351,4.119c-.058.249-.1.5-.177.747a3.714,3.714,0,0,1-.989,1.584q-2.33,2.285-4.661,4.569a3.819,3.819,0,0,1-4.444.745,4.771,4.771,0,0,1-1-.7.707.707,0,0,1-.02-1.039.757.757,0,0,1,1.05-.044,2.476,2.476,0,0,0,1.281.653,2.294,2.294,0,0,0,1.884-.518c.05-.042.1-.086.144-.131q2.35-2.3,4.7-4.608a2.212,2.212,0,0,0,.4-2.742A2.3,2.3,0,0,0,2286,2.091c-.7.636-1.358,1.317-2.034,1.978-.212.207-.419.417-.635.62a.772.772,0,0,1-1.092.024.733.733,0,0,1,.017-1.084c.858-.848,1.708-1.7,2.586-2.531a3.791,3.791,0,0,1,4.362-.7,3.644,3.644,0,0,1,2.106,2.849c.009.057.024.112.038.168Z" transform="translate(-2273.013 0)"/>
      <path id="Path_4267" data-name="Path 4267" d="M2131.031,153.97a8.752,8.752,0,0,1-.866-.2,3.693,3.693,0,0,1-2.18-5.243,4.125,4.125,0,0,1,.749-1c1.392-1.391,2.8-2.765,4.21-4.14a3.82,3.82,0,0,1,4.442-.754,4.791,4.791,0,0,1,1.012.711.7.7,0,0,1,.02,1.026.755.755,0,0,1-1.048.058,2.505,2.505,0,0,0-1.279-.657,2.254,2.254,0,0,0-1.9.523c-.26.224-.5.473-.741.713q-1.831,1.794-3.659,3.589a2.212,2.212,0,0,0-.25,2.974,2.3,2.3,0,0,0,3.352.326c.758-.694,1.476-1.432,2.211-2.152a.78.78,0,0,1,.794-.239.736.736,0,0,1,.392,1.181,3.494,3.494,0,0,1-.271.28c-.676.661-1.346,1.329-2.031,1.981a3.694,3.694,0,0,1-2.146.992.526.526,0,0,0-.1.032Z" transform="translate(-2127.559 -135.973)"/>
    </g>
  </g>
</svg>
