<svg xmlns="http://www.w3.org/2000/svg" xmlns:xlink="http://www.w3.org/1999/xlink" width="57" height="57" viewBox="0 0 57 57">
  <defs>
    <filter id="Ellipse_124" x="0" y="0" width="57" height="57" filterUnits="userSpaceOnUse">
      <feOffset dy="3" input="SourceAlpha"/>
      <feGaussianBlur stdDeviation="3" result="blur"/>
      <feFlood flood-opacity="0.161"/>
      <feComposite operator="in" in2="blur"/>
      <feComposite in="SourceGraphic"/>
    </filter>
    <clipPath id="clip-path">
      <rect id="Rectangle_579" data-name="Rectangle 579" width="19.234" height="23.643" fill="#fff"/>
    </clipPath>
  </defs>
  <g id="Group_1236" data-name="Group 1236" transform="translate(2 -18)">
    <g transform="matrix(1, 0, 0, 1, -2, 18)" filter="url(#Ellipse_124)">
      <circle id="Ellipse_124-2" data-name="Ellipse 124" cx="19.5" cy="19.5" r="19.5" transform="translate(9 6)" fill="#499dfe"/>
    </g>
    <g id="Group_582" data-name="Group 582" transform="translate(16.883 31.678)">
      <g id="Group_581" data-name="Group 581" clip-path="url(#clip-path)">
        <path id="Path_4281" data-name="Path 4281" d="M1.941,23.643a2.487,2.487,0,0,1-1.387-.669A1.975,1.975,0,0,1,0,21.528Q0,13.969,0,6.41C0,4.963,0,3.517,0,2.071A1.9,1.9,0,0,1,1.246.211a2.747,2.747,0,0,1,1.033-.2C6.013,0,9.748,0,13.483,0A.863.863,0,0,1,14.1.23q2.623,2.377,5.252,4.749a.729.729,0,0,1,.26.577q0,8.009,0,16.019a2.059,2.059,0,0,1-1.874,2.04.273.273,0,0,0-.069.029ZM13.072.984H2.4c-.9,0-1.309.376-1.309,1.189q0,9.649,0,19.3c0,.814.413,1.191,1.307,1.191h14.83c.879,0,1.15-.381,1.15-1.177q0-7.652,0-15.3V5.91h-.3c-.961,0-1.774.008-2.736,0A2.128,2.128,0,0,1,13.3,4.786a2.274,2.274,0,0,1-.222-.957c-.028-.937-.01-1.875-.01-2.846m4.544,3.933L14.173,1.8c0,.711-.027,1.471.009,2.229a.926.926,0,0,0,.968.877c.838.033,1.678.009,2.466.009" transform="translate(0 0)" fill="#fff"/>
        <path id="Path_4282" data-name="Path 4282" d="M58.7,138.16a7.084,7.084,0,0,1-.42,1.9c-.076.264-.159.528-.254.786a.309.309,0,0,0,.072.356,14.471,14.471,0,0,0,2.134,2,.56.56,0,0,0,.342.089c.651-.037,1.3-.1,1.953-.128a2.411,2.411,0,0,1,.7.111,1.1,1.1,0,0,1,.9,1.12,1.27,1.27,0,0,1-.9,1.307,2.047,2.047,0,0,1-1.848-.359c-.39-.253-.766-.525-1.157-.777a.431.431,0,0,0-.3-.069c-1.108.281-2.213.577-3.32.863a.571.571,0,0,0-.388.32,8.19,8.19,0,0,1-2.15,2.731,2.033,2.033,0,0,1-2.074.473,1.2,1.2,0,0,1-.412-2.167,7.136,7.136,0,0,1,1.3-.826c.812-.417,1.65-.786,2.472-1.185a.523.523,0,0,0,.251-.251q.56-1.527,1.089-3.066a.421.421,0,0,0-.075-.288c-.324-.564-.7-1.105-.978-1.689a2.877,2.877,0,0,1-.062-2.153,1.535,1.535,0,0,1,1.892-1.039,1.27,1.27,0,0,1,1.094,1.07c.063.283.088.575.131.863m-1.532,1.824a9.53,9.53,0,0,0,.317-1.107,6.071,6.071,0,0,0,.063-1.188c-.012-.34-.153-.431-.5-.421-.263.008-.4.126-.472.436a2.7,2.7,0,0,0,.59,2.28m.393,2.275-.625,1.852,1.913-.495-1.287-1.358m-2.99,4.066-.05-.078q-1.057.587-2.113,1.176a.5.5,0,0,0-.112.1c-.193.207-.169.286.108.377a.756.756,0,0,0,.658-.084,5.373,5.373,0,0,0,1.508-1.492m7.149-2.126-.021.082a3.664,3.664,0,0,0,.494.3,2.171,2.171,0,0,0,.576.143c.148.018.286-.073.258-.232a.329.329,0,0,0-.226-.208c-.358-.047-.72-.059-1.08-.084" transform="translate(-47.854 -128.649)" fill="#fff"/>
      </g>
    </g>
  </g>
</svg>
