<svg xmlns="http://www.w3.org/2000/svg" width="15.355" height="15.355" viewBox="0 0 15.355 15.355"><g transform="translate(0.5 0.5)"><path d="M17.415,15.458A1.958,1.958,0,1,1,15.458,13.5,1.958,1.958,0,0,1,17.415,15.458Z" transform="translate(-8.281 -8.279)" fill="none" stroke="#000" stroke-linecap="round" stroke-linejoin="round" stroke-width="1"/><path d="M13.507,10.636a1.077,1.077,0,0,0,.215,1.188l.039.039a1.306,1.306,0,1,1-1.847,1.847l-.039-.039a1.085,1.085,0,0,0-1.84.77v.111a1.305,1.305,0,0,1-2.61,0v-.059a1.13,1.13,0,0,0-1.892-.77l-.039.039a1.306,1.306,0,1,1-1.847-1.847l.039-.039a1.085,1.085,0,0,0-.77-1.84H2.805a1.305,1.305,0,1,1,0-2.61h.059a1.13,1.13,0,0,0,.77-1.892l-.039-.039A1.306,1.306,0,1,1,5.441,3.647l.039.039A1.077,1.077,0,0,0,6.668,3.9H6.72a1.077,1.077,0,0,0,.653-.985V2.805a1.305,1.305,0,0,1,2.61,0v.059a1.085,1.085,0,0,0,1.84.77l.039-.039a1.306,1.306,0,1,1,1.847,1.847l-.039.039a1.077,1.077,0,0,0-.215,1.188V6.72a1.077,1.077,0,0,0,.985.653h.111a1.305,1.305,0,1,1,0,2.61h-.059a1.077,1.077,0,0,0-.985.653Z" transform="translate(-1.501 -1.499)" fill="none" stroke="#000" stroke-linecap="round" stroke-linejoin="round" stroke-width="1"/></g></svg>